# xmcd
#
# Track frame offsets: 
#        150
#        31572
#        50427
#        77385
#        98816
#        124743
#        153825
#        180570
#        204738
#        221379
#        244865
#        263080
#        284235
#
# Disc length: 3989 seconds
#
# Revision: 1
# Processed by: cddbd v1.5.2PL0 Copyright (c) Steve Scherf et al.
# Submitted via: ExactAudioCopyFreeDBPlugin 1.0
#
DISCID=ab0f930d
DTITLE=Tadeusz Nalepa - 60 urodziny
DYEAR=2006
DGENRE=Blues
TTITLE0=Zerwany film
TTITLE1=Dlatego głupku jesteś sam
TTITLE2=Modlitwa
TTITLE3=Chcę przytulić cię
TTITLE4=Kiedy byłem małym chłopcem
TTITLE5=Do kogo idziesz
TTITLE6=Zapraszamy na korridę
TTITLE7=Na drugim brzegu tęczy
TTITLE8=Pomaluj moje sny
TTITLE9=Pozwól mi być z tobą tu
TTITLE10=To niemożliwe
TTITLE11=Ten o tobie film
TTITLE12=Oni zaraz przyjdą tu
EXTD=
EXTT0=
EXTT1=
EXTT2=
EXTT3=
EXTT4=
EXTT5=
EXTT6=
EXTT7=
EXTT8=
EXTT9=
EXTT10=
EXTT11=
EXTT12=
PLAYORDER=
